<svg width="51" height="51" viewBox="0 0 51 51" fill="none" xmlns="http://www.w3.org/2000/svg">
<g filter="url(#filter0_d)">
<path d="M40.4065 21.6035H39.1982V21.5412H25.6982V27.5412H34.1755C32.9387 31.034 29.6155 33.5412 25.6982 33.5412C20.728 33.5412 16.6982 29.5115 16.6982 24.5412C16.6982 19.571 20.728 15.5412 25.6982 15.5412C27.9925 15.5412 30.0797 16.4067 31.669 17.8205L35.9117 13.5777C33.2327 11.081 29.6492 9.54123 25.6982 9.54123C17.4145 9.54123 10.6982 16.2575 10.6982 24.5412C10.6982 32.825 17.4145 39.5412 25.6982 39.5412C33.982 39.5412 40.6982 32.825 40.6982 24.5412C40.6982 23.5355 40.5947 22.5537 40.4065 21.6035Z" fill="#FBC02D"/>
<path d="M12.4277 17.5595L17.356 21.1737C18.6895 17.8722 21.919 15.5412 25.6982 15.5412C27.9925 15.5412 30.0797 16.4067 31.669 17.8205L35.9117 13.5777C33.2327 11.081 29.6492 9.54123 25.6982 9.54123C19.9367 9.54123 14.9402 12.794 12.4277 17.5595Z" fill="#E53935"/>
<path d="M25.6982 39.5412C29.5727 39.5412 33.0932 38.0585 35.755 35.6472L31.1125 31.7187C29.6065 32.8595 27.7345 33.5412 25.6982 33.5412C21.7967 33.5412 18.484 31.0535 17.236 27.5817L12.3445 31.3505C14.827 36.2082 19.8685 39.5412 25.6982 39.5412Z" fill="#4CAF50"/>
<path d="M40.4065 21.6035L40.3945 21.5412H39.1982H25.6982V27.5412H34.1755C33.5815 29.219 32.5022 30.6657 31.1102 31.7195C31.111 31.7187 31.1117 31.7187 31.1125 31.718L35.755 35.6465C35.4265 35.945 40.6982 32.0412 40.6982 24.5412C40.6982 23.5355 40.5947 22.5537 40.4065 21.6035Z" fill="#1565C0"/>
</g>
<defs>
<filter id="filter0_d" x="0.698242" y="0.541229" width="50" height="50" filterUnits="userSpaceOnUse" color-interpolation-filters="sRGB">
<feFlood flood-opacity="0" result="BackgroundImageFix"/>
<feColorMatrix in="SourceAlpha" type="matrix" values="0 0 0 0 0 0 0 0 0 0 0 0 0 0 0 0 0 0 127 0"/>
<feOffset dy="1"/>
<feGaussianBlur stdDeviation="5"/>
<feColorMatrix type="matrix" values="0 0 0 0 0 0 0 0 0 0 0 0 0 0 0 0 0 0 0.15 0"/>
<feBlend mode="normal" in2="BackgroundImageFix" result="effect1_dropShadow"/>
<feBlend mode="normal" in="SourceGraphic" in2="effect1_dropShadow" result="shape"/>
</filter>
</defs>
</svg>
